<?xml version="1.0" encoding="UTF-8"?><svg id="a" xmlns="http://www.w3.org/2000/svg" xmlns:xlink="http://www.w3.org/1999/xlink" viewBox="0 0 189.44 51"><defs><style>.e{fill:#fff;}.f{fill:url(#c);}.g{fill:url(#b);}.h{fill:url(#d);}</style><linearGradient id="b" x1="9.23" y1="25.5" x2="46.45" y2="25.5" gradientTransform="matrix(1, 0, 0, 1, 0, 0)" gradientUnits="userSpaceOnUse"><stop offset="0" stop-color="#518eff"/><stop offset="1" stop-color="#b725ff"/></linearGradient><linearGradient id="c" x1="19.48" y1="46.5" x2="-.48" y2="46.5" xlink:href="#b"/><linearGradient id="d" x1="19.48" y1="4.5" x2="-.48" y2="4.5" xlink:href="#b"/></defs><g><path class="e" d="M75.75,25.52c0,6.87-5.57,12.44-12.44,12.44-.29,0-.58-.01-.87-.03h-15.9V13.08h16.7s.05,0,.07,0c6.87,0,12.44,5.57,12.44,12.44Zm-6.57-.01c0-3.47-2.81-6.28-6.28-6.28h-10.22v12.57h10.22c3.47,0,6.28-2.81,6.28-6.28Z"/><path class="e" d="M102.55,27.65l5.93,10.28-7.12-.05-5-8.67c-.51-.88-1.44-1.41-2.45-1.41h-5.8v10.16h-6.14V13.07h18.45c.23-.02,.46-.03,.69-.03,4.07,0,7.38,3.3,7.38,7.38,0,3.58-2.55,6.56-5.93,7.23Zm-.75-7.22c0-.93-.75-1.69-1.69-1.69h-12.01v3.37h12.01c.93,0,1.69-.75,1.69-1.69Z"/><path class="e" d="M114.84,37.96V13.11h6.14v24.85h-6.14Z"/><path class="e" d="M158.13,13.11l-12.51,21.66-1.84,3.18h-3.42l-14.37-24.85h7.1l8.96,15.52h0l8.97-15.54,7.09,.02Z"/><path class="e" d="M169.28,19.25v3.21h14.5v6.14h-14.5v3.21h20.16v6.14h-26.3V13.11h26.3v6.14h-20.16Z"/></g><g><polygon class="g" points="46.45 .74 33.95 .74 9.23 25.5 33.95 50.26 46.45 50.26 21.74 25.5 46.45 .74"/><g><rect class="f" y="42.08" width="18.46" height="8.84" rx="2.56" ry="2.56"/><rect class="h" y=".08" width="18.46" height="8.84" rx="2.56" ry="2.56"/></g></g></svg>